<svg width="41" height="41" viewBox="0 0 41 41" fill="none" xmlns="http://www.w3.org/2000/svg">
<g id="Group 2">
<path id="Vector" d="M19.1854 14.3906V19.187M19.1854 19.187V23.9834M19.1854 19.187H23.9818M19.1854 19.187H14.389" stroke="white" stroke-linecap="round" stroke-linejoin="round"/>
<path id="Vector_2" d="M40.2997 39.8651L36.9081 36.4736L33.5166 33.082" stroke="#C4C4C4" stroke-linecap="round" stroke-linejoin="round"/>
<path id="Subtract" fill-rule="evenodd" clip-rule="evenodd" d="M19.3699 38.7399C30.0676 38.7399 38.7399 30.0676 38.7399 19.3699C38.7399 8.67221 30.0676 0 19.3699 0C8.67221 0 0 8.67221 0 19.3699C0 30.0676 8.67221 38.7399 19.3699 38.7399ZM19.3699 27.6692C23.9546 27.6692 27.6713 23.9525 27.6713 19.3678C27.6713 14.7831 23.9546 11.0664 19.3699 11.0664C14.7851 11.0664 11.0685 14.7831 11.0685 19.3678C11.0685 23.9525 14.7851 27.6692 19.3699 27.6692Z" fill="white"/>
</g>
</svg>
